<mxfile host="app.diagrams.net" agent="Mozilla/5.0 (Windows NT 10.0; Win64; x64) AppleWebKit/537.36 (KHTML, like Gecko) Chrome/132.0.0.0 YaBrowser/25.2.0.0 Safari/537.36" version="26.1.0">
  <diagram name="Страница — 1" id="zaxdIwGMHUqTzNa5ckf0">
    <mxGraphModel dx="1253" dy="719" grid="1" gridSize="10" guides="1" tooltips="1" connect="1" arrows="1" fold="1" page="1" pageScale="1" pageWidth="827" pageHeight="1169" math="0" shadow="0">
      <root>
        <mxCell id="0" />
        <mxCell id="1" parent="0" />
        <mxCell id="7rRuBoY1kT09NfKMChsm-1" style="edgeStyle=orthogonalEdgeStyle;rounded=0;orthogonalLoop=1;jettySize=auto;html=1;entryX=0.5;entryY=0;entryDx=0;entryDy=0;" edge="1" parent="1" source="DoYAKG-HJtfmcfz2JSOT-1" target="DoYAKG-HJtfmcfz2JSOT-10">
          <mxGeometry relative="1" as="geometry" />
        </mxCell>
        <mxCell id="DoYAKG-HJtfmcfz2JSOT-1" value="Roles&lt;div&gt;&lt;br&gt;&lt;/div&gt;" style="swimlane;fontStyle=1;align=center;verticalAlign=top;childLayout=stackLayout;horizontal=1;startSize=26;horizontalStack=0;resizeParent=1;resizeParentMax=0;resizeLast=0;collapsible=1;marginBottom=0;whiteSpace=wrap;html=1;" parent="1" vertex="1">
          <mxGeometry x="90" y="80" width="160" height="78" as="geometry" />
        </mxCell>
        <mxCell id="DoYAKG-HJtfmcfz2JSOT-2" value="role_id (PK)&lt;div&gt;role_name&lt;/div&gt;" style="text;strokeColor=none;fillColor=none;align=left;verticalAlign=top;spacingLeft=4;spacingRight=4;overflow=hidden;rotatable=0;points=[[0,0.5],[1,0.5]];portConstraint=eastwest;whiteSpace=wrap;html=1;" parent="DoYAKG-HJtfmcfz2JSOT-1" vertex="1">
          <mxGeometry y="26" width="160" height="44" as="geometry" />
        </mxCell>
        <mxCell id="DoYAKG-HJtfmcfz2JSOT-3" value="" style="line;strokeWidth=1;fillColor=none;align=left;verticalAlign=middle;spacingTop=-1;spacingLeft=3;spacingRight=3;rotatable=0;labelPosition=right;points=[];portConstraint=eastwest;strokeColor=inherit;" parent="DoYAKG-HJtfmcfz2JSOT-1" vertex="1">
          <mxGeometry y="70" width="160" height="8" as="geometry" />
        </mxCell>
        <mxCell id="DoYAKG-HJtfmcfz2JSOT-10" value="Users" style="swimlane;fontStyle=1;align=center;verticalAlign=top;childLayout=stackLayout;horizontal=1;startSize=26;horizontalStack=0;resizeParent=1;resizeParentMax=0;resizeLast=0;collapsible=1;marginBottom=0;whiteSpace=wrap;html=1;" parent="1" vertex="1">
          <mxGeometry x="290" y="150" width="160" height="148" as="geometry" />
        </mxCell>
        <mxCell id="DoYAKG-HJtfmcfz2JSOT-11" value="user_id (PK)&lt;div&gt;name&lt;/div&gt;&lt;div&gt;email&lt;/div&gt;&lt;div&gt;phone&lt;/div&gt;&lt;div&gt;password_hash&lt;/div&gt;&lt;div&gt;role_id (FK)&lt;/div&gt;&lt;div&gt;created_at&lt;/div&gt;" style="text;strokeColor=none;fillColor=none;align=left;verticalAlign=top;spacingLeft=4;spacingRight=4;overflow=hidden;rotatable=0;points=[[0,0.5],[1,0.5]];portConstraint=eastwest;whiteSpace=wrap;html=1;" parent="DoYAKG-HJtfmcfz2JSOT-10" vertex="1">
          <mxGeometry y="26" width="160" height="114" as="geometry" />
        </mxCell>
        <mxCell id="DoYAKG-HJtfmcfz2JSOT-12" value="" style="line;strokeWidth=1;fillColor=none;align=left;verticalAlign=middle;spacingTop=-1;spacingLeft=3;spacingRight=3;rotatable=0;labelPosition=right;points=[];portConstraint=eastwest;strokeColor=inherit;" parent="DoYAKG-HJtfmcfz2JSOT-10" vertex="1">
          <mxGeometry y="140" width="160" height="8" as="geometry" />
        </mxCell>
        <mxCell id="DoYAKG-HJtfmcfz2JSOT-19" value="Payments" style="swimlane;fontStyle=1;align=center;verticalAlign=top;childLayout=stackLayout;horizontal=1;startSize=26;horizontalStack=0;resizeParent=1;resizeParentMax=0;resizeLast=0;collapsible=1;marginBottom=0;whiteSpace=wrap;html=1;" parent="1" vertex="1">
          <mxGeometry x="380" y="560" width="160" height="128" as="geometry" />
        </mxCell>
        <mxCell id="DoYAKG-HJtfmcfz2JSOT-20" value="payment_id (RK)&lt;div&gt;user_id (FK)&lt;/div&gt;&lt;div&gt;project_id (FK)&lt;/div&gt;&lt;div&gt;amount&lt;/div&gt;&lt;div&gt;payment_date&lt;/div&gt;&lt;div&gt;status&lt;/div&gt;" style="text;strokeColor=none;fillColor=none;align=left;verticalAlign=top;spacingLeft=4;spacingRight=4;overflow=hidden;rotatable=0;points=[[0,0.5],[1,0.5]];portConstraint=eastwest;whiteSpace=wrap;html=1;" parent="DoYAKG-HJtfmcfz2JSOT-19" vertex="1">
          <mxGeometry y="26" width="160" height="94" as="geometry" />
        </mxCell>
        <mxCell id="DoYAKG-HJtfmcfz2JSOT-21" value="" style="line;strokeWidth=1;fillColor=none;align=left;verticalAlign=middle;spacingTop=-1;spacingLeft=3;spacingRight=3;rotatable=0;labelPosition=right;points=[];portConstraint=eastwest;strokeColor=inherit;" parent="DoYAKG-HJtfmcfz2JSOT-19" vertex="1">
          <mxGeometry y="120" width="160" height="8" as="geometry" />
        </mxCell>
        <mxCell id="7rRuBoY1kT09NfKMChsm-13" style="edgeStyle=orthogonalEdgeStyle;rounded=0;orthogonalLoop=1;jettySize=auto;html=1;entryX=0.5;entryY=0;entryDx=0;entryDy=0;" edge="1" parent="1" source="DoYAKG-HJtfmcfz2JSOT-26" target="DoYAKG-HJtfmcfz2JSOT-49">
          <mxGeometry relative="1" as="geometry" />
        </mxCell>
        <mxCell id="7rRuBoY1kT09NfKMChsm-15" style="edgeStyle=orthogonalEdgeStyle;rounded=0;orthogonalLoop=1;jettySize=auto;html=1;entryX=0.5;entryY=0;entryDx=0;entryDy=0;" edge="1" parent="1" source="DoYAKG-HJtfmcfz2JSOT-26" target="DoYAKG-HJtfmcfz2JSOT-19">
          <mxGeometry relative="1" as="geometry" />
        </mxCell>
        <mxCell id="DoYAKG-HJtfmcfz2JSOT-26" value="Volunteer Services" style="swimlane;fontStyle=1;align=center;verticalAlign=top;childLayout=stackLayout;horizontal=1;startSize=26;horizontalStack=0;resizeParent=1;resizeParentMax=0;resizeLast=0;collapsible=1;marginBottom=0;whiteSpace=wrap;html=1;" parent="1" vertex="1">
          <mxGeometry x="260" y="370" width="160" height="118" as="geometry" />
        </mxCell>
        <mxCell id="DoYAKG-HJtfmcfz2JSOT-27" value="service_id (RK)&lt;div&gt;volunteer_id (FK)&lt;/div&gt;&lt;div&gt;project_id (FK)&lt;/div&gt;&lt;div&gt;description&lt;/div&gt;&lt;div&gt;hours&lt;/div&gt;" style="text;strokeColor=none;fillColor=none;align=left;verticalAlign=top;spacingLeft=4;spacingRight=4;overflow=hidden;rotatable=0;points=[[0,0.5],[1,0.5]];portConstraint=eastwest;whiteSpace=wrap;html=1;" parent="DoYAKG-HJtfmcfz2JSOT-26" vertex="1">
          <mxGeometry y="26" width="160" height="84" as="geometry" />
        </mxCell>
        <mxCell id="DoYAKG-HJtfmcfz2JSOT-28" value="" style="line;strokeWidth=1;fillColor=none;align=left;verticalAlign=middle;spacingTop=-1;spacingLeft=3;spacingRight=3;rotatable=0;labelPosition=right;points=[];portConstraint=eastwest;strokeColor=inherit;" parent="DoYAKG-HJtfmcfz2JSOT-26" vertex="1">
          <mxGeometry y="110" width="160" height="8" as="geometry" />
        </mxCell>
        <mxCell id="7rRuBoY1kT09NfKMChsm-2" style="edgeStyle=orthogonalEdgeStyle;rounded=0;orthogonalLoop=1;jettySize=auto;html=1;entryX=0.5;entryY=0;entryDx=0;entryDy=0;" edge="1" parent="1" source="DoYAKG-HJtfmcfz2JSOT-36" target="DoYAKG-HJtfmcfz2JSOT-42">
          <mxGeometry relative="1" as="geometry" />
        </mxCell>
        <mxCell id="DoYAKG-HJtfmcfz2JSOT-36" value="Organizations" style="swimlane;fontStyle=1;align=center;verticalAlign=top;childLayout=stackLayout;horizontal=1;startSize=26;horizontalStack=0;resizeParent=1;resizeParentMax=0;resizeLast=0;collapsible=1;marginBottom=0;whiteSpace=wrap;html=1;" parent="1" vertex="1">
          <mxGeometry x="720" y="30" width="160" height="108" as="geometry" />
        </mxCell>
        <mxCell id="DoYAKG-HJtfmcfz2JSOT-37" value="organization_id (RK)&lt;div&gt;name&lt;/div&gt;&lt;div&gt;contact_info&lt;/div&gt;&lt;div&gt;description&lt;/div&gt;" style="text;strokeColor=none;fillColor=none;align=left;verticalAlign=top;spacingLeft=4;spacingRight=4;overflow=hidden;rotatable=0;points=[[0,0.5],[1,0.5]];portConstraint=eastwest;whiteSpace=wrap;html=1;" parent="DoYAKG-HJtfmcfz2JSOT-36" vertex="1">
          <mxGeometry y="26" width="160" height="74" as="geometry" />
        </mxCell>
        <mxCell id="DoYAKG-HJtfmcfz2JSOT-38" value="" style="line;strokeWidth=1;fillColor=none;align=left;verticalAlign=middle;spacingTop=-1;spacingLeft=3;spacingRight=3;rotatable=0;labelPosition=right;points=[];portConstraint=eastwest;strokeColor=inherit;" parent="DoYAKG-HJtfmcfz2JSOT-36" vertex="1">
          <mxGeometry y="100" width="160" height="8" as="geometry" />
        </mxCell>
        <mxCell id="DoYAKG-HJtfmcfz2JSOT-42" value="Projects" style="swimlane;fontStyle=1;align=center;verticalAlign=top;childLayout=stackLayout;horizontal=1;startSize=26;horizontalStack=0;resizeParent=1;resizeParentMax=0;resizeLast=0;collapsible=1;marginBottom=0;whiteSpace=wrap;html=1;" parent="1" vertex="1">
          <mxGeometry x="550" y="170" width="160" height="128" as="geometry" />
        </mxCell>
        <mxCell id="DoYAKG-HJtfmcfz2JSOT-43" value="project_id (RK)&lt;div&gt;name&lt;/div&gt;&lt;div&gt;description&lt;/div&gt;&lt;div&gt;start_date&lt;/div&gt;&lt;div&gt;end date&lt;br&gt;organization_id (FK)&lt;/div&gt;" style="text;strokeColor=none;fillColor=none;align=left;verticalAlign=top;spacingLeft=4;spacingRight=4;overflow=hidden;rotatable=0;points=[[0,0.5],[1,0.5]];portConstraint=eastwest;whiteSpace=wrap;html=1;" parent="DoYAKG-HJtfmcfz2JSOT-42" vertex="1">
          <mxGeometry y="26" width="160" height="94" as="geometry" />
        </mxCell>
        <mxCell id="DoYAKG-HJtfmcfz2JSOT-44" value="" style="line;strokeWidth=1;fillColor=none;align=left;verticalAlign=middle;spacingTop=-1;spacingLeft=3;spacingRight=3;rotatable=0;labelPosition=right;points=[];portConstraint=eastwest;strokeColor=inherit;" parent="DoYAKG-HJtfmcfz2JSOT-42" vertex="1">
          <mxGeometry y="120" width="160" height="8" as="geometry" />
        </mxCell>
        <mxCell id="7rRuBoY1kT09NfKMChsm-14" style="edgeStyle=orthogonalEdgeStyle;rounded=0;orthogonalLoop=1;jettySize=auto;html=1;entryX=0.5;entryY=0;entryDx=0;entryDy=0;" edge="1" parent="1" source="DoYAKG-HJtfmcfz2JSOT-46" target="DoYAKG-HJtfmcfz2JSOT-19">
          <mxGeometry relative="1" as="geometry" />
        </mxCell>
        <mxCell id="DoYAKG-HJtfmcfz2JSOT-46" value="Applications" style="swimlane;fontStyle=1;align=center;verticalAlign=top;childLayout=stackLayout;horizontal=1;startSize=26;horizontalStack=0;resizeParent=1;resizeParentMax=0;resizeLast=0;collapsible=1;marginBottom=0;whiteSpace=wrap;html=1;" parent="1" vertex="1">
          <mxGeometry x="470" y="370" width="160" height="118" as="geometry" />
        </mxCell>
        <mxCell id="DoYAKG-HJtfmcfz2JSOT-47" value="application_id (RK)&lt;div&gt;user_id (FK)&lt;/div&gt;&lt;div&gt;project_id (FK)&lt;/div&gt;&lt;div&gt;status&lt;/div&gt;&lt;div&gt;created_at&lt;br&gt;&lt;/div&gt;" style="text;strokeColor=none;fillColor=none;align=left;verticalAlign=top;spacingLeft=4;spacingRight=4;overflow=hidden;rotatable=0;points=[[0,0.5],[1,0.5]];portConstraint=eastwest;whiteSpace=wrap;html=1;" parent="DoYAKG-HJtfmcfz2JSOT-46" vertex="1">
          <mxGeometry y="26" width="160" height="84" as="geometry" />
        </mxCell>
        <mxCell id="DoYAKG-HJtfmcfz2JSOT-48" value="" style="line;strokeWidth=1;fillColor=none;align=left;verticalAlign=middle;spacingTop=-1;spacingLeft=3;spacingRight=3;rotatable=0;labelPosition=right;points=[];portConstraint=eastwest;strokeColor=inherit;" parent="DoYAKG-HJtfmcfz2JSOT-46" vertex="1">
          <mxGeometry y="110" width="160" height="8" as="geometry" />
        </mxCell>
        <mxCell id="DoYAKG-HJtfmcfz2JSOT-49" value="Charity Events" style="swimlane;fontStyle=1;align=center;verticalAlign=top;childLayout=stackLayout;horizontal=1;startSize=26;horizontalStack=0;resizeParent=1;resizeParentMax=0;resizeLast=0;collapsible=1;marginBottom=0;whiteSpace=wrap;html=1;" parent="1" vertex="1">
          <mxGeometry x="70" y="540" width="160" height="128" as="geometry" />
        </mxCell>
        <mxCell id="DoYAKG-HJtfmcfz2JSOT-50" value="&lt;div&gt;event_id (PK)&lt;/div&gt;project_id (FK)&lt;div&gt;name&lt;/div&gt;&lt;div&gt;date&lt;/div&gt;&lt;div&gt;location&lt;br&gt;status&lt;/div&gt;" style="text;strokeColor=none;fillColor=none;align=left;verticalAlign=top;spacingLeft=4;spacingRight=4;overflow=hidden;rotatable=0;points=[[0,0.5],[1,0.5]];portConstraint=eastwest;whiteSpace=wrap;html=1;" parent="DoYAKG-HJtfmcfz2JSOT-49" vertex="1">
          <mxGeometry y="26" width="160" height="94" as="geometry" />
        </mxCell>
        <mxCell id="DoYAKG-HJtfmcfz2JSOT-51" value="" style="line;strokeWidth=1;fillColor=none;align=left;verticalAlign=middle;spacingTop=-1;spacingLeft=3;spacingRight=3;rotatable=0;labelPosition=right;points=[];portConstraint=eastwest;strokeColor=inherit;" parent="DoYAKG-HJtfmcfz2JSOT-49" vertex="1">
          <mxGeometry y="120" width="160" height="8" as="geometry" />
        </mxCell>
        <mxCell id="7rRuBoY1kT09NfKMChsm-11" style="edgeStyle=orthogonalEdgeStyle;rounded=0;orthogonalLoop=1;jettySize=auto;html=1;entryX=1;entryY=0.5;entryDx=0;entryDy=0;" edge="1" parent="1" source="DoYAKG-HJtfmcfz2JSOT-52" target="DoYAKG-HJtfmcfz2JSOT-43">
          <mxGeometry relative="1" as="geometry" />
        </mxCell>
        <mxCell id="DoYAKG-HJtfmcfz2JSOT-52" value="Beneficiaries" style="swimlane;fontStyle=1;align=center;verticalAlign=top;childLayout=stackLayout;horizontal=1;startSize=26;horizontalStack=0;resizeParent=1;resizeParentMax=0;resizeLast=0;collapsible=1;marginBottom=0;whiteSpace=wrap;html=1;" parent="1" vertex="1">
          <mxGeometry x="827" y="189" width="160" height="108" as="geometry" />
        </mxCell>
        <mxCell id="DoYAKG-HJtfmcfz2JSOT-53" value="beneficiary_id (RK)&lt;div&gt;name&lt;/div&gt;&lt;div&gt;contact_info&lt;/div&gt;&lt;div&gt;description&lt;/div&gt;" style="text;strokeColor=none;fillColor=none;align=left;verticalAlign=top;spacingLeft=4;spacingRight=4;overflow=hidden;rotatable=0;points=[[0,0.5],[1,0.5]];portConstraint=eastwest;whiteSpace=wrap;html=1;" parent="DoYAKG-HJtfmcfz2JSOT-52" vertex="1">
          <mxGeometry y="26" width="160" height="74" as="geometry" />
        </mxCell>
        <mxCell id="DoYAKG-HJtfmcfz2JSOT-54" value="" style="line;strokeWidth=1;fillColor=none;align=left;verticalAlign=middle;spacingTop=-1;spacingLeft=3;spacingRight=3;rotatable=0;labelPosition=right;points=[];portConstraint=eastwest;strokeColor=inherit;" parent="DoYAKG-HJtfmcfz2JSOT-52" vertex="1">
          <mxGeometry y="100" width="160" height="8" as="geometry" />
        </mxCell>
        <mxCell id="7rRuBoY1kT09NfKMChsm-4" style="edgeStyle=orthogonalEdgeStyle;rounded=0;orthogonalLoop=1;jettySize=auto;html=1;entryX=0.442;entryY=-0.027;entryDx=0;entryDy=0;entryPerimeter=0;" edge="1" parent="1" source="DoYAKG-HJtfmcfz2JSOT-10" target="DoYAKG-HJtfmcfz2JSOT-26">
          <mxGeometry relative="1" as="geometry" />
        </mxCell>
        <mxCell id="7rRuBoY1kT09NfKMChsm-8" style="edgeStyle=orthogonalEdgeStyle;rounded=0;orthogonalLoop=1;jettySize=auto;html=1;entryX=0.688;entryY=0.014;entryDx=0;entryDy=0;entryPerimeter=0;" edge="1" parent="1" source="DoYAKG-HJtfmcfz2JSOT-42" target="DoYAKG-HJtfmcfz2JSOT-46">
          <mxGeometry relative="1" as="geometry" />
        </mxCell>
        <mxCell id="7rRuBoY1kT09NfKMChsm-16" value="1:M" style="text;html=1;align=center;verticalAlign=middle;resizable=0;points=[];autosize=1;strokeColor=none;fillColor=none;" vertex="1" parent="1">
          <mxGeometry x="740" y="218" width="40" height="30" as="geometry" />
        </mxCell>
        <mxCell id="7rRuBoY1kT09NfKMChsm-17" value="M:1" style="text;html=1;align=center;verticalAlign=middle;resizable=0;points=[];autosize=1;strokeColor=none;fillColor=none;" vertex="1" parent="1">
          <mxGeometry x="650" y="60" width="40" height="30" as="geometry" />
        </mxCell>
        <mxCell id="7rRuBoY1kT09NfKMChsm-18" value="1:M" style="text;html=1;align=center;verticalAlign=middle;resizable=0;points=[];autosize=1;strokeColor=none;fillColor=none;" vertex="1" parent="1">
          <mxGeometry x="280" y="98" width="40" height="30" as="geometry" />
        </mxCell>
        <mxCell id="7rRuBoY1kT09NfKMChsm-19" value="M:1" style="text;html=1;align=center;verticalAlign=middle;resizable=0;points=[];autosize=1;strokeColor=none;fillColor=none;" vertex="1" parent="1">
          <mxGeometry x="320" y="308" width="40" height="30" as="geometry" />
        </mxCell>
        <mxCell id="7rRuBoY1kT09NfKMChsm-20" value="M:1" style="text;html=1;align=center;verticalAlign=middle;resizable=0;points=[];autosize=1;strokeColor=none;fillColor=none;" vertex="1" parent="1">
          <mxGeometry x="175" y="398" width="40" height="30" as="geometry" />
        </mxCell>
        <mxCell id="7rRuBoY1kT09NfKMChsm-21" value="1:M" style="text;html=1;align=center;verticalAlign=middle;resizable=0;points=[];autosize=1;strokeColor=none;fillColor=none;" vertex="1" parent="1">
          <mxGeometry x="380" y="498" width="40" height="30" as="geometry" />
        </mxCell>
        <mxCell id="7rRuBoY1kT09NfKMChsm-22" value="M:1" style="text;html=1;align=center;verticalAlign=middle;resizable=0;points=[];autosize=1;strokeColor=none;fillColor=none;" vertex="1" parent="1">
          <mxGeometry x="580" y="308" width="40" height="30" as="geometry" />
        </mxCell>
        <mxCell id="7rRuBoY1kT09NfKMChsm-23" value="M:N" style="text;html=1;align=center;verticalAlign=middle;resizable=0;points=[];autosize=1;strokeColor=none;fillColor=none;" vertex="1" parent="1">
          <mxGeometry x="465" y="498" width="50" height="30" as="geometry" />
        </mxCell>
      </root>
    </mxGraphModel>
  </diagram>
</mxfile>
